<?xml version="1.0" standalone="no"?>
<!DOCTYPE svg PUBLIC "-//W3C//DTD SVG 20010904//EN"
 "http://www.w3.org/TR/2001/REC-SVG-20010904/DTD/svg10.dtd">
<svg version="1.0" xmlns="http://www.w3.org/2000/svg"
 width="512.000000pt" height="512.000000pt" viewBox="0 0 512.000000 512.000000"
 preserveAspectRatio="xMidYMid meet">
<metadata>
Created by potrace 1.14, written by Peter Selinger 2001-2017
</metadata>
<g transform="translate(0.000000,512.000000) scale(0.100000,-0.100000)"
fill="#000000" stroke="none">
<path d="M0 4960 l0 -160 160 0 160 0 0 160 0 160 -160 0 -160 0 0 -160z"/>
<path d="M480 4960 l0 -160 160 0 160 0 0 160 0 160 -160 0 -160 0 0 -160z"/>
<path d="M960 4960 l0 -160 121 0 c106 0 126 3 160 22 l39 22 0 138 0 138
-160 0 -160 0 0 -160z"/>
<path d="M1440 5021 l0 -99 98 38 c53 21 125 46 160 56 l62 17 0 44 0 43 -160
0 -160 0 0 -99z"/>
<path d="M1920 5096 l0 -23 78 13 c42 8 115 18 162 23 81 8 78 8 -77 10 l-163
1 0 -24z"/>
<path d="M2561 5116 c11 -9 159 -15 159 -6 0 6 -35 10 -82 10 -45 0 -79 -2
-77 -4z"/>
<path d="M2880 5095 c0 -14 6 -25 13 -25 11 0 191 -48 290 -77 15 -5 17 3 17
61 l0 66 -160 0 -160 0 0 -25z"/>
<path d="M3360 5021 l0 -99 121 -61 c87 -44 132 -61 160 -61 l39 0 0 160 0
160 -160 0 -160 0 0 -99z"/>
<path d="M3840 4960 l0 -160 160 0 160 0 0 160 0 160 -160 0 -160 0 0 -160z"/>
<path d="M4320 4960 l0 -160 160 0 160 0 0 160 0 160 -160 0 -160 0 0 -160z"/>
<path d="M4800 4960 l0 -160 160 0 160 0 0 160 0 160 -160 0 -160 0 0 -160z"/>
<path d="M2280 4954 c-345 -30 -590 -93 -847 -218 -244 -119 -423 -246 -613
-436 -349 -348 -566 -784 -636 -1279 -22 -155 -22 -447 0 -602 70 -495 287
-930 636 -1279 358 -358 810 -578 1315 -641 128 -16 402 -16 530 0 379 47 759
196 1054 414 l53 39 477 -476 476 -476 198 0 197 0 0 203 0 202 -474 474 -474
474 48 66 c202 277 345 639 396 1000 22 154 22 447 0 602 -94 665 -470 1245
-1036 1599 -263 165 -600 283 -905 319 -104 12 -330 21 -395 15z m460 -667
c315 -75 550 -201 773 -416 441 -424 601 -1073 407 -1654 -123 -366 -355 -661
-682 -863 -154 -95 -338 -167 -538 -211 -122 -26 -478 -26 -600 0 -326 71
-587 208 -813 426 -229 220 -376 483 -454 811 -37 157 -44 427 -14 599 69 402
273 748 591 1000 198 157 415 258 666 310 143 30 141 30 359 26 171 -3 215 -7
305 -28z"/>
<path d="M1769 3620 c-165 -26 -348 -152 -441 -305 -47 -77 -85 -191 -93 -280
-16 -158 35 -370 131 -553 88 -168 152 -249 350 -443 189 -186 279 -267 432
-390 128 -103 204 -149 247 -149 93 0 471 305 743 600 309 336 405 518 419
800 11 234 -40 383 -182 526 -92 92 -179 141 -310 175 -91 23 -250 27 -330 9
-97 -22 -195 -78 -274 -156 -40 -41 -74 -74 -75 -74 -1 0 -31 29 -67 63 -72
69 -192 135 -290 161 -75 19 -192 26 -260 16z"/>
<path d="M0 4480 l0 -160 160 0 160 0 0 160 0 160 -160 0 -160 0 0 -160z"/>
<path d="M480 4480 l0 -160 63 0 62 0 98 98 97 97 0 63 0 62 -160 0 -160 0 0
-160z"/>
<path d="M3856 4631 c5 -4 41 -34 79 -66 39 -32 105 -92 148 -134 l77 -76 0
143 0 142 -157 0 c-90 0 -153 -4 -147 -9z"/>
<path d="M4320 4480 l0 -160 160 0 160 0 0 160 0 160 -160 0 -160 0 0 -160z"/>
<path d="M4800 4480 l0 -160 160 0 160 0 0 160 0 160 -160 0 -160 0 0 -160z"/>
<path d="M0 4000 l0 -160 138 0 137 0 22 40 c20 34 23 53 23 159 l0 121 -160
0 -160 0 0 -160z"/>
<path d="M4330 4155 c0 -3 26 -44 59 -93 32 -48 76 -117 97 -154 l38 -68 58 0
58 0 0 160 0 160 -155 0 c-85 0 -155 -2 -155 -5z"/>
<path d="M4800 4000 l0 -160 160 0 160 0 0 160 0 160 -160 0 -160 0 0 -160z"/>
<path d="M0 3520 l0 -160 43 0 44 0 16 59 c9 33 34 105 56 160 l39 101 -99 0
-99 0 0 -160z"/>
<path d="M4617 3643 c21 -52 23 -52 23 -5 0 35 -3 42 -19 42 -19 0 -19 -2 -4
-37z"/>
<path d="M4800 3520 l0 -160 160 0 160 0 0 160 0 160 -160 0 -160 0 0 -160z"/>
<path d="M2 3038 c1 -90 3 -145 5 -123 5 65 33 254 39 270 5 11 -1 15 -20 15
l-26 0 2 -162z"/>
<path d="M4800 3040 l0 -160 160 0 160 0 0 160 0 160 -160 0 -160 0 0 -160z"/>
<path d="M4800 2560 l0 -160 160 0 160 0 0 160 0 160 -160 0 -160 0 0 -160z"/>
<path d="M0 2487 c0 -50 4 -87 10 -87 9 0 3 159 -6 169 -2 2 -4 -35 -4 -82z"/>
<path d="M0 2080 l0 -160 65 0 c36 0 65 2 65 5 0 2 -13 51 -30 107 -16 57 -34
127 -40 156 -10 45 -15 52 -36 52 l-24 0 0 -160z"/>
<path d="M4800 2080 l0 -160 160 0 160 0 0 160 0 160 -160 0 -160 0 0 -160z"/>
<path d="M0 1600 l0 -160 160 0 160 0 0 37 c0 26 -19 75 -62 160 l-61 123 -99
0 -98 0 0 -160z"/>
<path d="M4562 1678 c-21 -46 -60 -118 -85 -160 l-46 -78 104 0 105 0 0 160
c0 152 -1 160 -20 160 -14 0 -29 -21 -58 -82z"/>
<path d="M4800 1600 l0 -160 160 0 160 0 0 160 0 160 -160 0 -160 0 0 -160z"/>
<path d="M0 1120 l0 -160 160 0 160 0 0 160 0 160 -160 0 -160 0 0 -160z"/>
<path d="M4600 1245 c19 -19 35 -35 37 -35 2 0 3 16 3 35 0 34 -1 35 -37 35
l-37 0 34 -35z"/>
<path d="M4800 1162 l0 -118 43 -42 43 -42 117 0 117 0 0 160 0 160 -160 0
-160 0 0 -118z"/>
<path d="M480 1117 l0 -157 142 0 143 0 -76 78 c-42 42 -102 109 -134 147 -32
39 -62 74 -66 80 -5 5 -9 -58 -9 -148z"/>
<path d="M0 640 l0 -160 160 0 160 0 0 160 0 160 -160 0 -160 0 0 -160z"/>
<path d="M480 640 l0 -160 160 0 160 0 0 160 0 160 -160 0 -160 0 0 -160z"/>
<path d="M960 639 l0 -159 160 0 160 0 0 59 0 59 -72 40 c-40 22 -112 67 -160
100 l-88 61 0 -160z"/>
<path d="M5080 765 c19 -19 35 -35 37 -35 2 0 3 16 3 35 0 34 -1 35 -37 35
l-37 0 34 -35z"/>
<path d="M3610 648 c-36 -22 -107 -60 -157 -84 -71 -34 -93 -49 -93 -64 0 -19
7 -20 160 -20 l160 0 0 105 c0 58 -1 105 -2 104 -2 0 -32 -19 -68 -41z"/>
<path d="M3840 520 l0 -40 42 0 42 0 -39 40 c-21 22 -40 40 -42 40 -2 0 -3
-18 -3 -40z"/>
<path d="M1440 499 c0 -16 7 -19 42 -19 47 0 47 2 -4 23 -36 15 -38 15 -38 -4z"/>
<path d="M0 160 l0 -160 160 0 160 0 0 160 0 160 -160 0 -160 0 0 -160z"/>
<path d="M480 160 l0 -160 160 0 160 0 0 160 0 160 -160 0 -160 0 0 -160z"/>
<path d="M960 160 l0 -160 160 0 160 0 0 160 0 160 -160 0 -160 0 0 -160z"/>
<path d="M1440 160 l0 -160 160 0 160 0 0 160 0 160 -160 0 -160 0 0 -160z"/>
<path d="M1920 160 l0 -160 160 0 160 0 0 160 0 160 -160 0 -160 0 0 -160z"/>
<path d="M2400 160 l0 -160 160 0 160 0 0 160 0 160 -160 0 -160 0 0 -160z"/>
<path d="M2880 160 l0 -160 160 0 160 0 0 160 0 160 -160 0 -160 0 0 -160z"/>
<path d="M3360 160 l0 -160 160 0 160 0 0 160 0 160 -160 0 -160 0 0 -160z"/>
<path d="M3840 160 l0 -160 160 0 160 0 0 123 0 123 -38 37 -38 37 -122 0
-122 0 0 -160z"/>
<path d="M4320 40 l0 -40 42 0 42 0 -39 40 c-21 22 -40 40 -42 40 -2 0 -3 -18
-3 -40z"/>
</g>
</svg>
