<?xml version="1.0" standalone="no"?>
<!DOCTYPE svg PUBLIC "-//W3C//DTD SVG 20010904//EN"
 "http://www.w3.org/TR/2001/REC-SVG-20010904/DTD/svg10.dtd">
<svg version="1.0" xmlns="http://www.w3.org/2000/svg"
 width="512.000000pt" height="512.000000pt" viewBox="0 0 512.000000 512.000000"
 preserveAspectRatio="xMidYMid meet">
<metadata>
Created by potrace 1.14, written by Peter Selinger 2001-2017
</metadata>
<g transform="translate(0.000000,512.000000) scale(0.100000,-0.100000)"
fill="#000000" stroke="none">
<path d="M2115 4945 c-286 -33 -605 -143 -863 -299 -608 -366 -1004 -982
-1082 -1681 -14 -130 -12 -383 4 -515 88 -701 482 -1302 1087 -1661 350 -207
726 -309 1139 -309 477 0 903 135 1294 408 l78 55 472 -472 471 -471 203 0
202 0 0 202 0 203 -471 471 -472 472 65 93 c392 568 502 1275 302 1937 -111
366 -339 731 -617 984 -357 327 -796 532 -1252 583 -155 18 -407 18 -560 0z
m417 -635 c549 -45 1040 -374 1287 -861 201 -394 231 -842 86 -1259 -207 -594
-747 -1009 -1381 -1060 -637 -52 -1251 290 -1543 859 -299 584 -211 1295 220
1784 300 340 708 529 1179 545 19 1 88 -3 152 -8z"/>
<path d="M1711 3624 c-168 -45 -344 -190 -420 -345 -53 -109 -74 -194 -74
-299 -1 -222 83 -459 241 -680 148 -209 720 -732 877 -801 60 -27 98 -19 188
41 312 204 788 683 932 936 137 239 161 584 56 792 -68 135 -166 230 -306 298
-105 50 -210 74 -327 74 -168 0 -297 -52 -418 -166 l-75 -72 -66 62 c-121 112
-291 177 -463 175 -50 0 -115 -7 -145 -15z"/>
</g>
</svg>
